<svg width="16" height="16" viewBox="0 0 16 16" fill="none" xmlns="http://www.w3.org/2000/svg">
<path d="M8.34035 9.06359C8.34035 8.66515 8.6115 8.18066 8.94597 7.98144L14.3944 4.73626C14.7289 4.53704 15 4.69854 15 5.09697L15 11.5873C15 11.9858 14.7289 12.4703 14.3944 12.6695L8.94597 15.9147C8.6115 16.1139 8.34035 15.9524 8.34035 15.554V9.06359Z" fill="black"/>
<path d="M1 5.09697C1 4.69854 1.27114 4.53704 1.60561 4.73626L7.05403 7.98144C7.3885 8.18066 7.65964 8.66515 7.65964 9.06359V15.554C7.65964 15.9524 7.3885 16.1139 7.05403 15.9147L1.60561 12.6695C1.27114 12.4703 1 11.9858 1 11.5873L1 5.09697Z" fill="black"/>
<path d="M7.3852 0.149413C7.71967 -0.0498045 8.26196 -0.049804 8.59643 0.149413L14.0448 3.3946C14.3793 3.59381 14.3793 3.91681 14.0448 4.11603L8.59643 7.36121C8.26196 7.56043 7.71967 7.56043 7.3852 7.36121L1.93678 4.11603C1.60231 3.91681 1.60231 3.59381 1.93678 3.3946L7.3852 0.149413Z" fill="black"/>
</svg>
